<svg width="1024" height="1024" viewBox="0 0 1024 1024" fill="none" xmlns="http://www.w3.org/2000/svg">
<g clip-path="url(#clip0_8305_51579)">
<rect width="1024" height="1024" fill="url(#paint0_linear_8305_51579)"/>
<rect width="1024" height="1024" rx="256" fill="#1877F2"/>
<g filter="url(#filter0_ddi_8305_51579)">
<rect x="300.8" y="217.6" width="435.2" height="102.4" rx="19.2" fill="url(#paint1_linear_8305_51579)"/>
<path d="M524.096 586.155C517.186 591.485 507.552 591.485 500.643 586.155L314.272 442.403C299.765 431.214 307.678 408 325.998 408L698.741 408C717.061 408 724.973 431.214 710.467 442.403L524.096 586.155Z" fill="url(#paint2_linear_8305_51579)"/>
<path fill-rule="evenodd" clip-rule="evenodd" d="M198.4 563.2C198.4 552.596 206.996 544 217.6 544H281.6C292.204 544 300.8 552.596 300.8 563.2V684.8C300.8 695.404 309.396 704 320 704H710.4C721.004 704 729.6 695.404 729.6 684.8V563.2C729.6 552.596 738.196 544 748.8 544H812.8C823.404 544 832 552.596 832 563.2V787.2C832 797.804 823.404 806.4 812.8 806.4H729.6H300.8H198.4C198.4 806.4 198.4 806.4 198.4 806.4V704C198.4 704 198.4 704 198.4 704C198.4 704 198.4 704 198.4 704V563.2Z" fill="url(#paint3_linear_8305_51579)"/>
</g>
</g>
<defs>
<filter id="filter0_ddi_8305_51579" x="172.8" y="204.8" width="684.801" height="652.8" filterUnits="userSpaceOnUse" color-interpolation-filters="sRGB">
<feFlood flood-opacity="0" result="BackgroundImageFix"/>
<feColorMatrix in="SourceAlpha" type="matrix" values="0 0 0 0 0 0 0 0 0 0 0 0 0 0 0 0 0 0 127 0" result="hardAlpha"/>
<feOffset dy="25.6"/>
<feGaussianBlur stdDeviation="12.8"/>
<feComposite in2="hardAlpha" operator="out"/>
<feColorMatrix type="matrix" values="0 0 0 0 0 0 0 0 0 0 0 0 0 0 0 0 0 0 0.25 0"/>
<feBlend mode="normal" in2="BackgroundImageFix" result="effect1_dropShadow_8305_51579"/>
<feColorMatrix in="SourceAlpha" type="matrix" values="0 0 0 0 0 0 0 0 0 0 0 0 0 0 0 0 0 0 127 0" result="hardAlpha"/>
<feOffset dy="-12.8"/>
<feComposite in2="hardAlpha" operator="out"/>
<feColorMatrix type="matrix" values="0 0 0 0 1 0 0 0 0 1 0 0 0 0 1 0 0 0 0.05 0"/>
<feBlend mode="normal" in2="effect1_dropShadow_8305_51579" result="effect2_dropShadow_8305_51579"/>
<feBlend mode="normal" in="SourceGraphic" in2="effect2_dropShadow_8305_51579" result="shape"/>
<feColorMatrix in="SourceAlpha" type="matrix" values="0 0 0 0 0 0 0 0 0 0 0 0 0 0 0 0 0 0 127 0" result="hardAlpha"/>
<feOffset/>
<feGaussianBlur stdDeviation="12.8"/>
<feComposite in2="hardAlpha" operator="arithmetic" k2="-1" k3="1"/>
<feColorMatrix type="matrix" values="0 0 0 0 1 0 0 0 0 1 0 0 0 0 1 0 0 0 0.25 0"/>
<feBlend mode="normal" in2="shape" result="effect3_innerShadow_8305_51579"/>
</filter>
<linearGradient id="paint0_linear_8305_51579" x1="512" y1="0" x2="512" y2="1024" gradientUnits="userSpaceOnUse">
<stop stop-color="#1877F2"/>
<stop offset="1" stop-color="#1877F2"/>
</linearGradient>
<linearGradient id="paint1_linear_8305_51579" x1="518.4" y1="320" x2="518.4" y2="217.6" gradientUnits="userSpaceOnUse">
<stop stop-color="#0A70FF"/>
<stop offset="0.61" stop-color="#46E4FF"/>
<stop offset="1" stop-color="#E7FFFE"/>
</linearGradient>
<linearGradient id="paint2_linear_8305_51579" x1="512.369" y1="345.6" x2="512.369" y2="595.2" gradientUnits="userSpaceOnUse">
<stop stop-color="#0A70FF"/>
<stop offset="0.61" stop-color="#46E4FF"/>
<stop offset="1" stop-color="#E7FFFE"/>
</linearGradient>
<linearGradient id="paint3_linear_8305_51579" x1="515.2" y1="806.4" x2="515.2" y2="544" gradientUnits="userSpaceOnUse">
<stop stop-color="#0A70FF"/>
<stop offset="0.61" stop-color="#46E4FF"/>
<stop offset="1" stop-color="#E7FFFE"/>
</linearGradient>
<clipPath id="clip0_8305_51579">
<rect width="1024" height="1024" fill="white"/>
</clipPath>
</defs>
</svg>
