<svg width="22" height="17" viewBox="0 0 22 17" fill="none" xmlns="http://www.w3.org/2000/svg">
<path d="M2.5 8.11035C2.1071 8.11035 1.7474 8.01351 1.4209 7.81982C1.0944 7.62614 0.83431 7.36605 0.640625 7.03955C0.44694 6.71305 0.350098 6.35059 0.350098 5.95215C0.350098 5.55924 0.44694 5.20231 0.640625 4.88135C0.83431 4.55485 1.0944 4.29476 1.4209 4.10107C1.7474 3.90739 2.1071 3.81055 2.5 3.81055C2.8929 3.81055 3.2526 3.91016 3.5791 4.10938C3.9056 4.30306 4.16292 4.56315 4.35107 4.88965C4.54476 5.21061 4.6416 5.56478 4.6416 5.95215C4.6416 6.35059 4.54476 6.71305 4.35107 7.03955C4.16292 7.36605 3.9056 7.62614 3.5791 7.81982C3.2526 8.01351 2.8929 8.11035 2.5 8.11035ZM11 4.65723C10.6071 4.65723 10.2474 4.56038 9.9209 4.3667C9.5944 4.17301 9.33431 3.91569 9.14062 3.59473C8.94694 3.26823 8.8501 2.90576 8.8501 2.50732C8.8501 2.11442 8.94417 1.75749 9.13232 1.43652C9.32601 1.11003 9.5861 0.849935 9.9126 0.65625C10.2391 0.462565 10.6016 0.365723 11 0.365723C11.3929 0.365723 11.7498 0.462565 12.0708 0.65625C12.3973 0.849935 12.6574 1.11003 12.8511 1.43652C13.0448 1.75749 13.1416 2.11442 13.1416 2.50732C13.1416 2.90576 13.0448 3.26823 12.8511 3.59473C12.6574 3.91569 12.3973 4.17301 12.0708 4.3667C11.7498 4.56038 11.3929 4.65723 11 4.65723ZM19.4917 8.11035C19.0988 8.11035 18.7391 8.01351 18.4126 7.81982C18.0861 7.62614 17.826 7.36605 17.6323 7.03955C17.4442 6.71305 17.3501 6.35059 17.3501 5.95215C17.3501 5.56478 17.4442 5.21061 17.6323 4.88965C17.826 4.56315 18.0861 4.30306 18.4126 4.10938C18.7391 3.91016 19.0988 3.81055 19.4917 3.81055C19.8846 3.81055 20.2443 3.90739 20.5708 4.10107C20.8973 4.29476 21.1574 4.55485 21.3511 4.88135C21.5448 5.20231 21.6416 5.55924 21.6416 5.95215C21.6416 6.35059 21.5448 6.71305 21.3511 7.03955C21.1574 7.36605 20.8973 7.62614 20.5708 7.81982C20.2443 8.01351 19.8846 8.11035 19.4917 8.11035ZM2.5 6.81543C2.73796 6.81543 2.93717 6.73242 3.09766 6.56641C3.26367 6.39486 3.34668 6.1901 3.34668 5.95215C3.34668 5.72526 3.26367 5.52881 3.09766 5.36279C2.93164 5.19124 2.73242 5.10547 2.5 5.10547C2.26758 5.10547 2.06559 5.18848 1.89404 5.35449C1.72803 5.52051 1.64502 5.71973 1.64502 5.95215C1.64502 6.1901 1.72803 6.39486 1.89404 6.56641C2.06559 6.73242 2.26758 6.81543 2.5 6.81543ZM11 3.3623C11.238 3.3623 11.4372 3.2793 11.5977 3.11328C11.7637 2.94173 11.8467 2.73975 11.8467 2.50732C11.8467 2.28044 11.7609 2.08398 11.5894 1.91797C11.4233 1.74642 11.2269 1.66064 11 1.66064C10.7676 1.66064 10.5656 1.74365 10.394 1.90967C10.228 2.07015 10.145 2.26937 10.145 2.50732C10.145 2.73975 10.228 2.94173 10.394 3.11328C10.5656 3.2793 10.7676 3.3623 11 3.3623ZM19.4917 6.81543C19.7241 6.81543 19.9233 6.73242 20.0894 6.56641C20.2609 6.39486 20.3467 6.1901 20.3467 5.95215C20.3467 5.71973 20.2609 5.52051 20.0894 5.35449C19.9233 5.18848 19.7241 5.10547 19.4917 5.10547C19.2593 5.10547 19.0601 5.19124 18.894 5.36279C18.728 5.52881 18.645 5.72526 18.645 5.95215C18.645 6.1901 18.7253 6.39486 18.8857 6.56641C19.0518 6.73242 19.2537 6.81543 19.4917 6.81543ZM3.48779 7.5625L4.15186 6.5L6.57568 7.99414C6.71403 8.08268 6.82747 8.11865 6.91602 8.10205C7.00456 8.07992 7.08757 8.01628 7.16504 7.91113L10.0288 4.06787L11.2158 4.57422L8.07812 8.78271C7.80143 9.14795 7.47217 9.34717 7.09033 9.38037C6.7085 9.41357 6.38477 9.34717 6.11914 9.18115L3.48779 7.5625ZM18.5039 7.5542L15.8145 9.20605C15.5765 9.35547 15.2694 9.41357 14.8931 9.38037C14.5168 9.34717 14.1958 9.15072 13.9302 8.79102L10.7842 4.56592L11.9629 4.05127L14.8018 7.87793C14.8848 7.98861 14.9733 8.05501 15.0674 8.07715C15.1615 8.09928 15.2832 8.06331 15.4326 7.96924L17.8398 6.4917L18.5039 7.5542ZM4.53369 13.647V12.3936H17.4663V13.647H4.53369ZM2.4585 7.74512L3.62061 7.21387L5.39697 14.4854C5.53532 15.0609 5.90885 15.3486 6.51758 15.3486H15.4824C16.0856 15.3486 16.4591 15.0609 16.603 14.4854L18.3711 7.21387L19.5415 7.74512L17.8481 14.6431C17.6877 15.2961 17.422 15.7858 17.0513 16.1123C16.6805 16.4388 16.152 16.6021 15.4658 16.6021H6.52588C5.83968 16.6021 5.3112 16.4388 4.94043 16.1123C4.5752 15.7858 4.31234 15.2961 4.15186 14.6431L2.4585 7.74512Z" fill="#1877F2"/>
</svg>
