<svg width="18" height="19" viewBox="0 0 18 19" fill="none" xmlns="http://www.w3.org/2000/svg">
<path d="M5.18994 18.5151C4.59229 18.5151 4.10807 18.3381 3.7373 17.9839C3.37207 17.6353 3.17562 17.1621 3.14795 16.5645L2.5752 4.48682H1.5791C1.41309 4.48682 1.26644 4.42594 1.13916 4.3042C1.01742 4.17692 0.956543 4.02751 0.956543 3.85596C0.956543 3.68994 1.01742 3.54606 1.13916 3.42432C1.26644 3.29704 1.41309 3.2334 1.5791 3.2334H16.4126C16.5841 3.2334 16.7308 3.29427 16.8525 3.41602C16.9743 3.53776 17.0352 3.68441 17.0352 3.85596C17.0352 4.02751 16.9743 4.17692 16.8525 4.3042C16.7308 4.42594 16.5841 4.48682 16.4126 4.48682H15.4165L14.8438 16.5562C14.8161 17.1538 14.6169 17.6297 14.2461 17.9839C13.8809 18.3381 13.3994 18.5151 12.8018 18.5151H5.18994ZM5.30615 17.2617H12.6689C12.9124 17.2617 13.1144 17.1815 13.2749 17.021C13.4409 16.866 13.5295 16.6641 13.5405 16.415L14.0801 4.48682H3.87012L4.45117 16.415C4.46224 16.6585 4.54801 16.8605 4.7085 17.021C4.87451 17.1815 5.07373 17.2617 5.30615 17.2617ZM6.53467 15.8423C6.38525 15.8423 6.26074 15.798 6.16113 15.7095C6.06706 15.6209 6.02002 15.502 6.02002 15.3525L5.7627 6.479C5.7627 6.33512 5.80973 6.21891 5.90381 6.13037C5.99788 6.0363 6.1224 5.98926 6.27734 5.98926C6.42676 5.98926 6.5485 6.03353 6.64258 6.12207C6.74219 6.21061 6.79476 6.32682 6.80029 6.4707L7.04932 15.3525C7.05485 15.4964 7.01058 15.6154 6.9165 15.7095C6.82243 15.798 6.69515 15.8423 6.53467 15.8423ZM9 15.8423C8.83952 15.8423 8.70947 15.798 8.60986 15.7095C8.51025 15.6154 8.46045 15.4964 8.46045 15.3525V6.479C8.46045 6.33512 8.51025 6.21891 8.60986 6.13037C8.70947 6.0363 8.83952 5.98926 9 5.98926C9.15495 5.98926 9.28223 6.0363 9.38184 6.13037C9.48145 6.21891 9.53125 6.33512 9.53125 6.479V15.3525C9.53125 15.4964 9.48145 15.6154 9.38184 15.7095C9.28223 15.798 9.15495 15.8423 9 15.8423ZM11.457 15.8423C11.2965 15.8423 11.1693 15.798 11.0752 15.7095C10.9811 15.6154 10.9368 15.4964 10.9424 15.3525L11.1914 6.479C11.1969 6.32959 11.2467 6.21061 11.3408 6.12207C11.4404 6.03353 11.5622 5.98926 11.7061 5.98926C11.8665 5.98926 11.9938 6.0363 12.0879 6.13037C12.182 6.21891 12.229 6.33512 12.229 6.479L11.9717 15.3525C11.9717 15.502 11.9219 15.6209 11.8223 15.7095C11.7282 15.798 11.6064 15.8423 11.457 15.8423ZM5.35596 3.82275V1.96338C5.35596 1.36572 5.53857 0.895345 5.90381 0.552246C6.26904 0.203613 6.77262 0.0292969 7.41455 0.0292969H10.5605C11.2025 0.0292969 11.7061 0.203613 12.0713 0.552246C12.4365 0.895345 12.6191 1.36572 12.6191 1.96338V3.82275H11.2993V2.04639C11.2993 1.81396 11.2246 1.62581 11.0752 1.48193C10.9258 1.33805 10.7266 1.26611 10.4775 1.26611H7.49756C7.24854 1.26611 7.04932 1.33805 6.8999 1.48193C6.75049 1.62581 6.67578 1.81396 6.67578 2.04639V3.82275H5.35596Z" fill="#1877F2"/>
</svg>
