<svg width="22" height="22" viewBox="0 0 22 22" fill="none" xmlns="http://www.w3.org/2000/svg">
<path d="M10.9917 21.8145C9.80745 21.8145 8.67578 21.6291 7.59668 21.2583C6.52311 20.8931 5.53532 20.3784 4.6333 19.7144C3.73128 19.0503 2.94824 18.2673 2.28418 17.3652C1.62012 16.4632 1.1027 15.4727 0.731934 14.3936C0.366699 13.3145 0.184082 12.1855 0.184082 11.0068C0.184082 9.82259 0.366699 8.69368 0.731934 7.62012C1.09717 6.54102 1.61182 5.55046 2.27588 4.64844C2.94548 3.74642 3.72852 2.96338 4.625 2.29932C5.52702 1.62972 6.51481 1.1123 7.58838 0.74707C8.66748 0.376302 9.79915 0.190918 10.9834 0.190918C12.1676 0.190918 13.2993 0.376302 14.3784 0.74707C15.4575 1.1123 16.4481 1.62972 17.3501 2.29932C18.2521 2.96338 19.0352 3.74642 19.6992 4.64844C20.3688 5.55046 20.8862 6.54102 21.2515 7.62012C21.6222 8.69368 21.8076 9.82259 21.8076 11.0068C21.8076 12.1855 21.6222 13.3145 21.2515 14.3936C20.8862 15.4727 20.3688 16.4632 19.6992 17.3652C19.0352 18.2673 18.2521 19.0503 17.3501 19.7144C16.4481 20.3784 15.4575 20.8931 14.3784 21.2583C13.3049 21.6291 12.1759 21.8145 10.9917 21.8145ZM10.9917 20.2705C12.021 20.2705 12.9977 20.1128 13.9219 19.7974C14.8516 19.4875 15.701 19.0503 16.4702 18.4858C17.245 17.9214 17.9146 17.2546 18.479 16.4854C19.049 15.7106 19.4889 14.8612 19.7988 13.937C20.1087 13.0073 20.2609 12.0306 20.2554 11.0068C20.2554 9.97754 20.0977 9.00081 19.7822 8.07666C19.4723 7.14697 19.0352 6.29753 18.4707 5.52832C17.9062 4.75358 17.2367 4.08398 16.4619 3.51953C15.6927 2.95508 14.8433 2.5179 13.9136 2.20801C12.9894 1.89811 12.0127 1.74316 10.9834 1.74316C9.95964 1.74316 8.98291 1.89811 8.05322 2.20801C7.12907 2.5179 6.28239 2.95508 5.51318 3.51953C4.74398 4.08398 4.07715 4.75358 3.5127 5.52832C2.94824 6.29753 2.51107 7.14697 2.20117 8.07666C1.89128 9.00081 1.73633 9.97754 1.73633 11.0068C1.73633 12.0306 1.89128 13.0073 2.20117 13.937C2.51107 14.8612 2.94824 15.7106 3.5127 16.4854C4.08268 17.2546 4.75228 17.9214 5.52148 18.4858C6.29069 19.0503 7.13737 19.4875 8.06152 19.7974C8.99121 20.1128 9.96794 20.2705 10.9917 20.2705ZM10.7593 16.3193C10.4715 16.3193 10.2225 16.2197 10.0122 16.0205C9.80745 15.8158 9.70508 15.575 9.70508 15.2983C9.70508 15.0161 9.80745 14.7754 10.0122 14.5762C10.2225 14.377 10.4715 14.2773 10.7593 14.2773C11.047 14.2773 11.2933 14.377 11.498 14.5762C11.7083 14.7699 11.8135 15.0106 11.8135 15.2983C11.8135 15.5806 11.7083 15.8213 11.498 16.0205C11.2878 16.2197 11.0415 16.3193 10.7593 16.3193ZM10.7759 13.2065C10.2889 13.2065 10.0454 12.9631 10.0454 12.4761C10.0454 12.4429 10.0454 12.4097 10.0454 12.3765C10.0454 12.3433 10.0454 12.3101 10.0454 12.2769C10.0454 11.7733 10.1644 11.3638 10.4023 11.0483C10.6458 10.7274 10.9668 10.4285 11.3652 10.1519C11.8467 9.81429 12.1981 9.52376 12.4194 9.28027C12.6463 9.03678 12.7598 8.73242 12.7598 8.36719C12.7598 7.94108 12.6021 7.59521 12.2866 7.32959C11.9767 7.05843 11.5562 6.92285 11.0249 6.92285C10.6043 6.92285 10.2502 7.03076 9.9624 7.24658C9.67464 7.4624 9.45605 7.74463 9.30664 8.09326C9.17383 8.27035 9.05762 8.41976 8.95801 8.5415C8.8584 8.66325 8.67855 8.72412 8.41846 8.72412C8.26351 8.72412 8.11686 8.66878 7.97852 8.55811C7.8457 8.44743 7.7793 8.28971 7.7793 8.08496C7.7793 7.99642 7.78483 7.91064 7.7959 7.82764C7.8125 7.74463 7.83464 7.66162 7.8623 7.57861C7.94531 7.24105 8.12793 6.92839 8.41016 6.64062C8.69238 6.34733 9.05762 6.11214 9.50586 5.93506C9.95964 5.75798 10.4854 5.66943 11.083 5.66943C11.6751 5.66943 12.2174 5.77181 12.71 5.97656C13.208 6.18132 13.6064 6.48014 13.9053 6.87305C14.2041 7.26595 14.3535 7.7391 14.3535 8.29248C14.3535 8.89567 14.1986 9.38265 13.8887 9.75342C13.5788 10.1242 13.1582 10.4839 12.627 10.8325C12.2396 11.0926 11.9574 11.3361 11.7803 11.563C11.6032 11.7843 11.5146 12.05 11.5146 12.3599C11.5146 12.3875 11.5146 12.418 11.5146 12.4512C11.5146 12.4844 11.5146 12.5148 11.5146 12.5425C11.5146 12.7306 11.4482 12.8883 11.3154 13.0156C11.1882 13.1429 11.0083 13.2065 10.7759 13.2065Z" fill="#041019"/>
</svg>
