<svg width="33" height="32" viewBox="0 0 33 32" fill="none" xmlns="http://www.w3.org/2000/svg">
<g clip-path="url(#clip0_8390_8332)">
<path d="M14.7568 23.3364C14.4303 23.3364 14.1426 23.1759 13.8936 22.855L9.58545 17.3682C9.50244 17.2686 9.44157 17.1689 9.40283 17.0693C9.3641 16.9642 9.34473 16.8618 9.34473 16.7622C9.34473 16.5353 9.41943 16.3499 9.56885 16.2061C9.71826 16.0566 9.90918 15.9819 10.1416 15.9819C10.4183 15.9819 10.6562 16.1175 10.8555 16.3887L14.7236 21.4521L22.1777 9.57373C22.2773 9.41878 22.3797 9.31087 22.4849 9.25C22.59 9.18359 22.7256 9.15039 22.8916 9.15039C23.1185 9.15039 23.3011 9.21956 23.4395 9.35791C23.5778 9.49626 23.647 9.67887 23.647 9.90576C23.647 10.0054 23.6304 10.105 23.5972 10.2046C23.564 10.2987 23.5114 10.4038 23.4395 10.52L15.5952 22.8716C15.3905 23.1815 15.111 23.3364 14.7568 23.3364Z" fill="#27A5FF"/>
</g>
<defs>
<clipPath id="clip0_8390_8332">
<rect width="32" height="32" fill="white" transform="translate(0.5)"/>
</clipPath>
</defs>
</svg>
