<svg width="16" height="18" viewBox="0 0 16 18" fill="none" xmlns="http://www.w3.org/2000/svg">
<path d="M5.51807 5.00146L4.98682 3.88086C5.43506 3.68717 5.9165 3.53776 6.43115 3.43262C6.95133 3.32747 7.47428 3.2749 8 3.2749C9.0127 3.2749 9.96175 3.46582 10.8472 3.84766C11.7381 4.22396 12.5184 4.74691 13.188 5.4165C13.8576 6.0861 14.3805 6.86637 14.7568 7.75732C15.1387 8.64274 15.3296 9.5918 15.3296 10.6045C15.3296 11.6283 15.1387 12.5856 14.7568 13.4766C14.3805 14.362 13.8576 15.1423 13.188 15.8174C12.5184 16.487 11.7381 17.0099 10.8472 17.3862C9.96175 17.7625 9.0127 17.9507 8 17.9507C6.98177 17.9507 6.02718 17.7625 5.13623 17.3862C4.25081 17.0099 3.47331 16.487 2.80371 15.8174C2.13411 15.1423 1.6084 14.362 1.22656 13.4766C0.85026 12.5856 0.662109 11.6283 0.662109 10.6045C0.662109 10.4053 0.725749 10.242 0.853027 10.1147C0.98584 9.98193 1.15186 9.91553 1.35107 9.91553C1.55029 9.91553 1.70801 9.98193 1.82422 10.1147C1.94043 10.242 1.99854 10.4053 1.99854 10.6045C1.99854 11.4401 2.15348 12.2231 2.46338 12.9536C2.77327 13.6785 3.20215 14.3177 3.75 14.8711C4.29785 15.4189 4.93424 15.8451 5.65918 16.1494C6.38411 16.4593 7.16439 16.6143 8 16.6143C8.83008 16.6143 9.60758 16.4593 10.3325 16.1494C11.0575 15.8451 11.6938 15.4189 12.2417 14.8711C12.7896 14.3177 13.2184 13.6785 13.5283 12.9536C13.8382 12.2231 13.9932 11.4401 13.9932 10.6045C13.9932 9.77441 13.8382 8.99691 13.5283 8.27197C13.2184 7.54704 12.7896 6.91064 12.2417 6.36279C11.6938 5.81494 11.0575 5.38607 10.3325 5.07617C9.60758 4.76628 8.83008 4.61133 8 4.61133C7.50749 4.61133 7.05094 4.64453 6.63037 4.71094C6.21533 4.77181 5.84456 4.86865 5.51807 5.00146ZM8.29883 8.37158C8.09961 8.37158 7.93913 8.30794 7.81738 8.18066L4.39746 4.74414C4.32552 4.6722 4.27295 4.59473 4.23975 4.51172C4.20654 4.42871 4.18994 4.34017 4.18994 4.24609C4.18994 4.05794 4.25911 3.89193 4.39746 3.74805L7.81738 0.27832C7.93913 0.145508 8.10238 0.0791016 8.30713 0.0791016C8.48975 0.0791016 8.64193 0.145508 8.76367 0.27832C8.89095 0.405599 8.95459 0.566081 8.95459 0.759766C8.95459 0.842773 8.93799 0.925781 8.90479 1.00879C8.87712 1.0918 8.83285 1.1665 8.77197 1.23291L5.72559 4.22949L8.76367 7.23438C8.83008 7.30078 8.87712 7.37549 8.90479 7.4585C8.93799 7.53597 8.95459 7.61898 8.95459 7.70752C8.95459 7.89567 8.89095 8.05339 8.76367 8.18066C8.64193 8.30794 8.48698 8.37158 8.29883 8.37158Z" fill="#1877F2"/>
</svg>
