<svg width="256" height="257" viewBox="0 0 256 257" fill="none" xmlns="http://www.w3.org/2000/svg">
<g clip-path="url(#clip0_8461_44889)">
<path d="M256 35.5V170.5C252.73 164.11 247.87 161.19 240.33 161.36C222.01 161.78 203.67 161.47 185.34 161.51C175.12 161.53 171.29 165.34 170.98 175.63C170.66 185.79 165.91 190.46 155.67 190.48C137.67 190.52 119.68 190.51 101.68 190.48C91 190.46 86.57 186.16 86.04 175.43C85.52 164.96 82 161.53 71.55 161.51C53.39 161.47 35.22 161.75 17.06 161.37C9.68 161.22 4.06 163.36 0 169.5C0 124.5 0 79.5 0 34.5C0.55 33.56 1.31 32.68 1.63 31.66C6.31 16.63 16.15 6.82 31.16 2.13C32.18 1.81 33.06 1.05 34 0.5C96.33 0.5 158.67 0.5 221 0.5C221.83 0.91 222.62 1.45 223.49 1.7C239.72 6.35 250.13 16.79 254.78 33.01C255.03 33.88 255.58 34.67 255.99 35.5H256ZM145.77 114.56C152.13 114.18 155.56 112.58 157.41 108.43C159.46 103.83 159.63 99.32 156.21 95.32C153.84 92.54 151.31 89.84 148.49 87.53C144.68 84.4 144.26 81.92 148.28 78.46C151.64 75.57 154.72 72.13 157.13 68.42C160.34 63.47 158.94 57.28 154.64 54.09C150.02 50.65 144.34 50.87 140.05 54.98C136.81 58.08 133.73 61.36 130.83 64.78C128.83 67.14 127.19 67.24 125.09 65.07C122.44 62.31 119.73 59.6 116.96 56.97C111.47 51.77 105.13 51.37 100.46 55.83C95.86 60.23 96.02 67.45 100.99 72.89C103.46 75.59 106.04 78.2 108.74 80.66C111.27 82.96 111.57 84.66 108.53 86.96C105.5 89.25 102.81 92.04 100.21 94.84C96.82 98.49 96.12 102.73 98.36 107.28C102.08 114.84 110.5 115.5 118.06 108.84C127.91 100.15 127.79 100.28 137.46 109.28C140.23 111.85 143.91 113.44 145.75 114.59L145.77 114.56Z" fill="#E3EFFF"/>
<path d="M0 169.5C4.06 163.36 9.68 161.22 17.06 161.38C35.22 161.76 53.39 161.48 71.55 161.52C82 161.54 85.52 164.97 86.04 175.44C86.57 186.17 91 190.47 101.68 190.49C119.68 190.52 137.67 190.53 155.67 190.49C165.91 190.47 170.66 185.8 170.98 175.64C171.3 165.35 175.12 161.54 185.34 161.52C203.67 161.48 222.01 161.79 240.33 161.37C247.87 161.2 252.73 164.11 256 170.51V222.51C255.31 224.12 254.55 225.7 253.95 227.35C248.81 241.59 238.91 250.79 224.5 255.24C223.31 255.61 222.16 256.09 221 256.51H34C33.81 256.26 33.66 255.84 33.42 255.77C16.31 251.08 5.37 240.24 0.73 223.09C0.66 222.85 0.25 222.7 0 222.51C0 204.84 0 187.18 0 169.51L0 169.5Z" fill="#1877F2"/>
<path d="M145.77 114.56C143.93 113.41 140.24 111.83 137.48 109.25C127.81 100.25 127.93 100.12 118.08 108.81C110.52 115.47 102.1 114.81 98.3801 107.25C96.1401 102.69 96.8401 98.4502 100.23 94.8102C102.83 92.0102 105.52 89.2202 108.55 86.9302C111.58 84.6402 111.28 82.9402 108.76 80.6302C106.06 78.1702 103.47 75.5602 101.01 72.8602C96.0501 67.4202 95.8801 60.2002 100.48 55.8002C105.15 51.3402 111.49 51.7402 116.98 56.9402C119.76 59.5702 122.46 62.2802 125.11 65.0402C127.2 67.2202 128.85 67.1102 130.85 64.7502C133.75 61.3302 136.83 58.0402 140.07 54.9502C144.36 50.8502 150.04 50.6202 154.66 54.0602C158.95 57.2602 160.36 63.4402 157.15 68.3902C154.74 72.1002 151.66 75.5402 148.3 78.4302C144.27 81.8902 144.7 84.3702 148.51 87.5002C151.32 89.8102 153.86 92.5202 156.23 95.2902C159.64 99.2902 159.48 103.8 157.43 108.4C155.58 112.55 152.15 114.16 145.79 114.53L145.77 114.56Z" fill="#1877F2"/>
</g>
<defs>
<clipPath id="clip0_8461_44889">
<rect width="256" height="256" fill="white" transform="translate(0 0.5)"/>
</clipPath>
</defs>
</svg>
