<svg width="36" height="36" viewBox="0 0 36 36" fill="none" xmlns="http://www.w3.org/2000/svg">
<rect width="36" height="36" rx="18" fill="#1877F2"/>
<path d="M17.957 26.3008C16.7897 26.3008 15.7656 26.1074 14.8848 25.7207C14.0111 25.334 13.32 24.7969 12.8115 24.1094C12.3031 23.4219 12.0094 22.627 11.9307 21.7246L11.9199 21.585H15.0244L15.0352 21.7031C15.0853 22.0898 15.2357 22.4336 15.4863 22.7344C15.737 23.0352 16.07 23.2715 16.4854 23.4434C16.9079 23.6152 17.3984 23.7012 17.957 23.7012C18.5085 23.7012 18.9883 23.6081 19.3965 23.4219C19.8118 23.2285 20.1305 22.9671 20.3525 22.6377C20.5817 22.3083 20.6963 21.9287 20.6963 21.499V21.4775C20.6963 20.7327 20.4313 20.1634 19.9014 19.7695C19.3786 19.3757 18.6481 19.1787 17.71 19.1787H15.9375V16.8691H17.667C18.2113 16.8691 18.6839 16.7796 19.085 16.6006C19.486 16.4215 19.7975 16.1745 20.0195 15.8594C20.2415 15.5371 20.3525 15.1683 20.3525 14.7529V14.7314C20.3525 14.3089 20.2559 13.9473 20.0625 13.6465C19.8763 13.3385 19.6006 13.1022 19.2354 12.9375C18.8773 12.7728 18.444 12.6904 17.9355 12.6904C17.4271 12.6904 16.9795 12.7764 16.5928 12.9482C16.2061 13.113 15.8981 13.3493 15.6689 13.6572C15.4398 13.958 15.3037 14.3161 15.2607 14.7314L15.25 14.8389H12.2637L12.2744 14.6992C12.3532 13.7897 12.6325 12.9984 13.1123 12.3252C13.5993 11.652 14.251 11.1292 15.0674 10.7568C15.891 10.3844 16.847 10.1982 17.9355 10.1982C19.0456 10.1982 20.0124 10.3701 20.8359 10.7139C21.6595 11.0576 22.2933 11.5374 22.7373 12.1533C23.1885 12.762 23.4141 13.4782 23.4141 14.3018V14.3232C23.4141 14.9678 23.2708 15.5335 22.9844 16.0205C22.6979 16.5075 22.3112 16.9085 21.8242 17.2236C21.3372 17.5387 20.7894 17.7607 20.1807 17.8896V17.9541C21.3337 18.0615 22.2575 18.4339 22.9521 19.0713C23.6468 19.7087 23.9941 20.5537 23.9941 21.6064V21.6279C23.9941 22.5589 23.7399 23.3753 23.2314 24.0771C22.7301 24.779 22.0283 25.3268 21.126 25.7207C20.2236 26.1074 19.1673 26.3008 17.957 26.3008Z" fill="white"/>
</svg>
