<svg width="15" height="13" viewBox="0 0 15 13" fill="none" xmlns="http://www.w3.org/2000/svg">
<path d="M7.8457 3.33594C7.97461 3.33594 8.08398 3.38086 8.17383 3.4707C8.26367 3.56055 8.30859 3.66992 8.30859 3.79883V7.83008L7.77539 6.18945L9.72656 8.82031C9.81641 8.9375 9.85547 9.06055 9.84375 9.18945C9.83594 9.31445 9.77734 9.41406 9.66797 9.48828C9.55078 9.57031 9.42773 9.60156 9.29883 9.58203C9.17383 9.55859 9.0625 9.48438 8.96484 9.35938L7.51758 7.44922C7.4707 7.38672 7.43555 7.32617 7.41211 7.26758C7.38867 7.20508 7.37695 7.13867 7.37695 7.06836V3.79883C7.37695 3.66992 7.42188 3.56055 7.51172 3.4707C7.60547 3.38086 7.7168 3.33594 7.8457 3.33594ZM8.06836 12.7461C7.41211 12.7461 6.78516 12.6406 6.1875 12.4297C5.58984 12.2227 5.04102 11.9297 4.54102 11.5508C4.04102 11.1758 3.60547 10.7402 3.23438 10.2441C3.13281 10.1152 3.09375 9.98047 3.11719 9.83984C3.14453 9.69922 3.2168 9.5918 3.33398 9.51758C3.45898 9.44336 3.58398 9.42383 3.70898 9.45898C3.83789 9.49023 3.94727 9.56641 4.03711 9.6875C4.33398 10.1016 4.68945 10.4629 5.10352 10.7715C5.52148 11.0801 5.98047 11.3184 6.48047 11.4863C6.98047 11.6582 7.50977 11.7461 8.06836 11.75C8.75977 11.7539 9.40625 11.627 10.0078 11.3691C10.6094 11.1113 11.1367 10.7559 11.5898 10.3027C12.0469 9.8457 12.4043 9.31641 12.6621 8.71484C12.9199 8.10938 13.0488 7.46094 13.0488 6.76953C13.0488 6.07812 12.9199 5.43164 12.6621 4.83008C12.4043 4.22852 12.0469 3.70117 11.5898 3.24805C11.1367 2.79102 10.6094 2.43555 10.0078 2.18164C9.40625 1.92383 8.75977 1.79492 8.06836 1.79492C7.37695 1.79492 6.73047 1.92383 6.12891 2.18164C5.52734 2.43555 4.99805 2.78906 4.54102 3.24219C4.08398 3.69531 3.72656 4.22266 3.46875 4.82422C3.21484 5.42578 3.08789 6.07227 3.08789 6.76367H2.0918C2.0918 5.94727 2.24805 5.17969 2.56055 4.46094C2.87305 3.73828 3.30469 3.10352 3.85547 2.55664C4.40625 2.00586 5.04102 1.57422 5.75977 1.26172C6.48242 0.949219 7.25195 0.792969 8.06836 0.792969C8.88477 0.792969 9.65234 0.949219 10.3711 1.26172C11.0938 1.57422 11.7305 2.00586 12.2812 2.55664C12.832 3.10742 13.2637 3.74414 13.5762 4.4668C13.8887 5.18555 14.0449 5.95312 14.0449 6.76953C14.0449 7.58594 13.8887 8.35547 13.5762 9.07812C13.2637 9.79688 12.832 10.4316 12.2812 10.9824C11.7305 11.5332 11.0938 11.9648 10.3711 12.2773C9.65234 12.5898 8.88477 12.7461 8.06836 12.7461ZM1.37109 5.63867H4.06055C4.19727 5.63867 4.30078 5.66797 4.37109 5.72656C4.44141 5.78125 4.47461 5.85547 4.4707 5.94922C4.4707 6.03906 4.43359 6.13867 4.35938 6.24805L3.04688 8.11719C2.95312 8.25 2.84375 8.31836 2.71875 8.32227C2.59375 8.32227 2.48242 8.25391 2.38477 8.11719L1.07227 6.25391C0.998047 6.14453 0.958984 6.04297 0.955078 5.94922C0.951172 5.85547 0.984375 5.78125 1.05469 5.72656C1.125 5.66797 1.23047 5.63867 1.37109 5.63867Z" fill="#041019" fill-opacity="0.4"/>
</svg>
