<svg width="28" height="28" viewBox="0 0 28 28" fill="none" xmlns="http://www.w3.org/2000/svg">
<g filter="url(#filter0_b_8262_8236)">
<rect width="28" height="28" rx="8" fill="#999999" fill-opacity="0.97"/>
<rect width="28" height="28" rx="8" fill="#5C5C5C" style="mix-blend-mode:color-dodge"/>
<path d="M11.1719 20.0449C10.9766 20.0449 10.8242 19.9824 10.7148 19.8574C10.6055 19.7324 10.5508 19.5566 10.5508 19.3301V9.1582C10.5508 8.59961 10.6895 8.17969 10.9668 7.89844C11.2441 7.61719 11.6582 7.47656 12.209 7.47656H16.791C17.3418 7.47656 17.7559 7.61719 18.0332 7.89844C18.3105 8.17969 18.4492 8.59961 18.4492 9.1582V19.3301C18.4492 19.5566 18.3945 19.7324 18.2852 19.8574C18.1758 19.9824 18.0234 20.0449 17.8281 20.0449C17.6836 20.0449 17.5488 19.9961 17.4238 19.8984C17.3027 19.8008 17.1094 19.625 16.8438 19.3711L14.5527 17.1152C14.5176 17.0762 14.4824 17.0762 14.4473 17.1152L12.1562 19.3711C11.8906 19.6289 11.6953 19.8047 11.5703 19.8984C11.4453 19.9961 11.3125 20.0449 11.1719 20.0449ZM11.6523 18.4629L14.1895 16.002C14.2832 15.9121 14.3867 15.8672 14.5 15.8672C14.6133 15.8672 14.7168 15.9121 14.8105 16.002L17.3477 18.4629C17.3906 18.502 17.4297 18.5156 17.4648 18.5039C17.5039 18.4961 17.5234 18.4629 17.5234 18.4043V9.16992C17.5234 8.91602 17.457 8.72461 17.3242 8.5957C17.1953 8.4668 17.0039 8.40234 16.75 8.40234H12.2559C11.998 8.40234 11.8027 8.4668 11.6699 8.5957C11.541 8.72461 11.4766 8.91602 11.4766 9.16992V18.4043C11.4766 18.4629 11.4941 18.4961 11.5293 18.5039C11.5684 18.5156 11.6094 18.502 11.6523 18.4629Z" fill="black"/>
</g>
<defs>
<filter id="filter0_b_8262_8236" x="-50" y="-50" width="128" height="128" filterUnits="userSpaceOnUse" color-interpolation-filters="sRGB">
<feFlood flood-opacity="0" result="BackgroundImageFix"/>
<feGaussianBlur in="BackgroundImageFix" stdDeviation="25"/>
<feComposite in2="SourceAlpha" operator="in" result="effect1_backgroundBlur_8262_8236"/>
<feBlend mode="normal" in="SourceGraphic" in2="effect1_backgroundBlur_8262_8236" result="shape"/>
</filter>
</defs>
</svg>
