<svg width="32" height="32" viewBox="0 0 32 32" fill="none" xmlns="http://www.w3.org/2000/svg">
<path d="M12.1899 24.5151C11.5923 24.5151 11.1081 24.3381 10.7373 23.9839C10.3721 23.6353 10.1756 23.1621 10.1479 22.5645L9.5752 10.4868H8.5791C8.41309 10.4868 8.26644 10.4259 8.13916 10.3042C8.01742 10.1769 7.95654 10.0275 7.95654 9.85596C7.95654 9.68994 8.01742 9.54606 8.13916 9.42432C8.26644 9.29704 8.41309 9.2334 8.5791 9.2334H23.4126C23.5841 9.2334 23.7308 9.29427 23.8525 9.41602C23.9743 9.53776 24.0352 9.68441 24.0352 9.85596C24.0352 10.0275 23.9743 10.1769 23.8525 10.3042C23.7308 10.4259 23.5841 10.4868 23.4126 10.4868H22.4165L21.8438 22.5562C21.8161 23.1538 21.6169 23.6297 21.2461 23.9839C20.8809 24.3381 20.3994 24.5151 19.8018 24.5151H12.1899ZM12.3062 23.2617H19.6689C19.9124 23.2617 20.1144 23.1815 20.2749 23.021C20.4409 22.866 20.5295 22.6641 20.5405 22.415L21.0801 10.4868H10.8701L11.4512 22.415C11.4622 22.6585 11.548 22.8605 11.7085 23.021C11.8745 23.1815 12.0737 23.2617 12.3062 23.2617ZM13.5347 21.8423C13.3853 21.8423 13.2607 21.798 13.1611 21.7095C13.0671 21.6209 13.02 21.502 13.02 21.3525L12.7627 12.479C12.7627 12.3351 12.8097 12.2189 12.9038 12.1304C12.9979 12.0363 13.1224 11.9893 13.2773 11.9893C13.4268 11.9893 13.5485 12.0335 13.6426 12.1221C13.7422 12.2106 13.7948 12.3268 13.8003 12.4707L14.0493 21.3525C14.0549 21.4964 14.0106 21.6154 13.9165 21.7095C13.8224 21.798 13.6951 21.8423 13.5347 21.8423ZM16 21.8423C15.8395 21.8423 15.7095 21.798 15.6099 21.7095C15.5103 21.6154 15.4604 21.4964 15.4604 21.3525V12.479C15.4604 12.3351 15.5103 12.2189 15.6099 12.1304C15.7095 12.0363 15.8395 11.9893 16 11.9893C16.1549 11.9893 16.2822 12.0363 16.3818 12.1304C16.4814 12.2189 16.5312 12.3351 16.5312 12.479V21.3525C16.5312 21.4964 16.4814 21.6154 16.3818 21.7095C16.2822 21.798 16.1549 21.8423 16 21.8423ZM18.457 21.8423C18.2965 21.8423 18.1693 21.798 18.0752 21.7095C17.9811 21.6154 17.9368 21.4964 17.9424 21.3525L18.1914 12.479C18.1969 12.3296 18.2467 12.2106 18.3408 12.1221C18.4404 12.0335 18.5622 11.9893 18.7061 11.9893C18.8665 11.9893 18.9938 12.0363 19.0879 12.1304C19.182 12.2189 19.229 12.3351 19.229 12.479L18.9717 21.3525C18.9717 21.502 18.9219 21.6209 18.8223 21.7095C18.7282 21.798 18.6064 21.8423 18.457 21.8423ZM12.356 9.82275V7.96338C12.356 7.36572 12.5386 6.89535 12.9038 6.55225C13.269 6.20361 13.7726 6.0293 14.4146 6.0293H17.5605C18.2025 6.0293 18.7061 6.20361 19.0713 6.55225C19.4365 6.89535 19.6191 7.36572 19.6191 7.96338V9.82275H18.2993V8.04639C18.2993 7.81396 18.2246 7.62581 18.0752 7.48193C17.9258 7.33805 17.7266 7.26611 17.4775 7.26611H14.4976C14.2485 7.26611 14.0493 7.33805 13.8999 7.48193C13.7505 7.62581 13.6758 7.81396 13.6758 8.04639V9.82275H12.356Z" fill="black"/>
</svg>
