<svg width="14" height="18" viewBox="0 0 14 18" fill="none" xmlns="http://www.w3.org/2000/svg">
<path d="M10.0547 13.0161H3.75439C3.60498 13.0161 3.48047 13.0659 3.38086 13.1655C3.28125 13.2651 3.23145 13.3896 3.23145 13.5391C3.23145 13.6774 3.28125 13.7964 3.38086 13.896C3.48047 13.9901 3.60498 14.0371 3.75439 14.0371H10.0547C10.1986 14.0371 10.3175 13.9901 10.4116 13.896C10.5112 13.7964 10.561 13.6774 10.561 13.5391C10.561 13.3896 10.5112 13.2651 10.4116 13.1655C10.3175 13.0659 10.1986 13.0161 10.0547 13.0161ZM10.0547 10.1191H3.75439C3.60498 10.1191 3.48047 10.1689 3.38086 10.2686C3.28125 10.3626 3.23145 10.4816 3.23145 10.6255C3.23145 10.7694 3.28125 10.8911 3.38086 10.9907C3.48047 11.0903 3.60498 11.1401 3.75439 11.1401H10.0547C10.1986 11.1401 10.3175 11.0903 10.4116 10.9907C10.5112 10.8911 10.561 10.7694 10.561 10.6255C10.561 10.4816 10.5112 10.3626 10.4116 10.2686C10.3175 10.1689 10.1986 10.1191 10.0547 10.1191ZM2.59229 17.9053C1.73454 17.9053 1.08984 17.6895 0.658203 17.2578C0.232096 16.8262 0.019043 16.1759 0.019043 15.3071V2.71484C0.019043 1.85156 0.232096 1.20133 0.658203 0.76416C1.08984 0.326986 1.73454 0.108398 2.59229 0.108398H6.53516C6.84505 0.108398 7.11621 0.130534 7.34863 0.174805C7.58659 0.213542 7.80518 0.291016 8.00439 0.407227C8.20361 0.517904 8.40837 0.681152 8.61865 0.896973L13.1924 5.55371C13.4137 5.7806 13.5798 5.99642 13.6904 6.20117C13.8066 6.40039 13.8841 6.62174 13.9229 6.86523C13.9616 7.10872 13.981 7.41032 13.981 7.77002V15.3071C13.981 16.1704 13.7651 16.8179 13.3335 17.2495C12.9074 17.6867 12.2655 17.9053 11.4077 17.9053H2.59229ZM2.65039 16.5688H11.3413C11.7729 16.5688 12.0967 16.4582 12.3125 16.2368C12.5339 16.0155 12.6445 15.6973 12.6445 15.2822V7.82812H7.91309C7.3929 7.82812 7.00277 7.69808 6.74268 7.43799C6.48258 7.1779 6.35254 6.78776 6.35254 6.26758V1.44482H2.65869C2.22705 1.44482 1.90055 1.55827 1.6792 1.78516C1.46338 2.01204 1.35547 2.33024 1.35547 2.73975V15.2822C1.35547 15.6973 1.46338 16.0155 1.6792 16.2368C1.90055 16.4582 2.22428 16.5688 2.65039 16.5688ZM8.0625 6.57471H12.3872L7.60596 1.70215V6.10986C7.60596 6.27588 7.63916 6.39486 7.70557 6.4668C7.77751 6.53874 7.89648 6.57471 8.0625 6.57471Z" fill="#1877F2"/>
</svg>
