<svg width="20" height="16" viewBox="0 0 20 16" fill="none" xmlns="http://www.w3.org/2000/svg">
<path d="M3.44238 15.1704C2.57357 15.1704 1.92057 14.9546 1.4834 14.5229C1.05176 14.0968 0.835938 13.4549 0.835938 12.5972V3.43311C0.835938 2.58089 1.04069 1.94173 1.4502 1.51562C1.86523 1.08398 2.44629 0.868164 3.19336 0.868164H16.5576C17.4264 0.868164 18.0767 1.08398 18.5083 1.51562C18.9455 1.94173 19.1641 2.58089 19.1641 3.43311V12.5972C19.1641 13.4549 18.9565 14.0968 18.5415 14.5229C18.132 14.9546 17.5537 15.1704 16.8066 15.1704H3.44238ZM3.39258 13.9004H16.6074C17.0169 13.9004 17.3324 13.7925 17.5537 13.5767C17.7806 13.3553 17.894 13.0316 17.894 12.6055V3.44141C17.894 3.00977 17.7806 2.68604 17.5537 2.47021C17.3324 2.24886 17.0169 2.13818 16.6074 2.13818H3.39258C2.97754 2.13818 2.65934 2.24886 2.43799 2.47021C2.21663 2.68604 2.10596 3.007 2.10596 3.43311V12.5972C2.10596 13.0288 2.21663 13.3553 2.43799 13.5767C2.65934 13.7925 2.97754 13.9004 3.39258 13.9004ZM10.0166 10.2314C9.72331 10.2314 9.43278 10.1678 9.14502 10.0405C8.86279 9.91325 8.5778 9.70573 8.29004 9.41797L1.5083 2.76074L2.37988 1.88916L9.01221 8.43848C9.18929 8.61003 9.35807 8.74007 9.51855 8.82861C9.68457 8.91162 9.85059 8.95312 10.0166 8.95312C10.1771 8.95312 10.3376 8.91162 10.498 8.82861C10.6641 8.74561 10.8384 8.61556 11.021 8.43848L17.6201 1.92236L18.4834 2.79395L11.7432 9.41797C11.4499 9.70573 11.1621 9.91325 10.8799 10.0405C10.5977 10.1678 10.3099 10.2314 10.0166 10.2314ZM17.5371 14.083L12.1665 8.77051L13.0298 7.90723L18.4004 13.2114L17.5371 14.083ZM1.62451 13.2197L6.99512 7.90723L7.8667 8.77051L2.48779 14.0913L1.62451 13.2197Z" fill="#1877F2"/>
</svg>
