<svg width="52" height="52" viewBox="0 0 52 52" fill="none" xmlns="http://www.w3.org/2000/svg">
<rect width="52" height="52" rx="10" fill="#1877F2"/>
<rect width="52" height="52" rx="12" fill="#36546A" fill-opacity="0.08"/>
<g clip-path="url(#clip0_8461_43161)">
<path d="M19.1768 33.5522C18.3079 33.5522 17.6549 33.3364 17.2178 32.9048C16.7861 32.4787 16.5703 31.8368 16.5703 30.979V20.8604C16.5703 20.0247 16.7695 19.3994 17.168 18.9844C17.5664 18.5693 18.1309 18.3618 18.8613 18.3618H21.2271C21.4982 18.3618 21.7334 18.3812 21.9326 18.4199C22.1374 18.4587 22.3228 18.5223 22.4888 18.6108C22.6603 18.6994 22.8374 18.8211 23.02 18.9761L23.5264 19.3911C23.7367 19.5682 23.9386 19.6955 24.1323 19.7729C24.326 19.8449 24.564 19.8809 24.8462 19.8809H32.8149C33.6782 19.8809 34.3285 20.0967 34.7656 20.5283C35.2028 20.96 35.4214 21.6019 35.4214 22.4541V30.979C35.4214 31.8368 35.2139 32.4787 34.7988 32.9048C34.3838 33.3364 33.8055 33.5522 33.064 33.5522H19.1768ZM19.1934 32.2158H32.79C33.1995 32.2158 33.5177 32.1079 33.7446 31.8921C33.9715 31.6707 34.085 31.347 34.085 30.9209V22.5288C34.085 22.0972 33.9715 21.7707 33.7446 21.5493C33.5177 21.328 33.1995 21.2173 32.79 21.2173H24.4976C24.2264 21.2173 23.9884 21.1979 23.7837 21.1592C23.5789 21.1204 23.3908 21.0568 23.2192 20.9683C23.0477 20.8797 22.8734 20.7607 22.6963 20.6113L22.1899 20.188C21.9797 20.0109 21.7777 19.8836 21.584 19.8062C21.3958 19.7287 21.1634 19.6899 20.8867 19.6899H19.1353C18.7368 19.6899 18.4325 19.7951 18.2222 20.0054C18.0119 20.2157 17.9067 20.5256 17.9067 20.9351V30.9126C17.9067 31.3442 18.0174 31.6707 18.2388 31.8921C18.4601 32.1079 18.7783 32.2158 19.1934 32.2158ZM17.3838 24.2554V23.002H34.5996V24.2554H17.3838Z" fill="white"/>
</g>
<defs>
<clipPath id="clip0_8461_43161">
<rect width="32" height="32" fill="white" transform="translate(10 10)"/>
</clipPath>
</defs>
</svg>
