<svg width="19" height="19" viewBox="0 0 19 19" fill="none" xmlns="http://www.w3.org/2000/svg">
<path d="M8.66162 18.3804C8.34066 18.3804 8.06396 18.2891 7.83154 18.1064C7.60465 17.9294 7.45524 17.6859 7.3833 17.376L7.01807 15.8237L6.75244 15.7324L5.40771 16.5625C5.13656 16.734 4.85433 16.8005 4.56104 16.7617C4.26774 16.723 4.00765 16.5902 3.78076 16.3633L2.62695 15.2095C2.39453 14.9826 2.25895 14.7225 2.22021 14.4292C2.18701 14.1359 2.25618 13.8564 2.42773 13.5908L3.26611 12.2461L3.1748 11.9971L1.62256 11.6318C1.3182 11.5599 1.07471 11.4077 0.89209 11.1753C0.709473 10.9429 0.618164 10.6689 0.618164 10.3535V8.70996C0.618164 8.39453 0.706706 8.12061 0.883789 7.88818C1.06641 7.65576 1.31266 7.50358 1.62256 7.43164L3.1582 7.05811L3.25781 6.79248L2.41943 5.44775C2.24788 5.18213 2.17871 4.90544 2.21191 4.61768C2.25065 4.32438 2.38623 4.06152 2.61865 3.8291L3.77246 2.66699C3.99935 2.44564 4.25667 2.31559 4.54443 2.27686C4.83773 2.23812 5.11995 2.30176 5.39111 2.46777L6.73584 3.29785L7.01807 3.18994L7.3833 1.6377C7.45524 1.33333 7.60465 1.08984 7.83154 0.907227C8.06396 0.724609 8.34066 0.633301 8.66162 0.633301H10.3384C10.6593 0.633301 10.9333 0.724609 11.1602 0.907227C11.3926 1.08984 11.5448 1.33333 11.6167 1.6377L11.9736 3.18994L12.2559 3.29785L13.6089 2.46777C13.8745 2.30176 14.154 2.23812 14.4473 2.27686C14.7406 2.31559 14.9979 2.44564 15.2192 2.66699L16.3813 3.8291C16.6082 4.06152 16.741 4.32438 16.7798 4.61768C16.8185 4.90544 16.7521 5.18213 16.5806 5.44775L15.7339 6.79248L15.8418 7.05811L17.3774 7.43164C17.6818 7.50358 17.9253 7.65576 18.1079 7.88818C18.2905 8.12061 18.3818 8.39453 18.3818 8.70996V10.3535C18.3818 10.6689 18.2905 10.9429 18.1079 11.1753C17.9253 11.4077 17.6818 11.5599 17.3774 11.6318L15.8252 11.9971L15.7256 12.2461L16.5723 13.5908C16.7438 13.8564 16.8102 14.1359 16.7715 14.4292C16.7327 14.7225 16.5999 14.9826 16.373 15.2095L15.2109 16.3633C14.984 16.5902 14.724 16.723 14.4307 16.7617C14.1374 16.8005 13.8579 16.734 13.5923 16.5625L12.2393 15.7324L11.9736 15.8237L11.6167 17.376C11.5448 17.6859 11.3926 17.9294 11.1602 18.1064C10.9333 18.2891 10.6593 18.3804 10.3384 18.3804H8.66162ZM8.79443 17.0854H10.2056C10.3439 17.0854 10.4214 17.0218 10.438 16.8945L10.9443 14.8359C11.1989 14.7751 11.4396 14.6976 11.6665 14.6035C11.8934 14.5039 12.0954 14.3988 12.2725 14.2881L14.082 15.4004C14.1872 15.4723 14.2923 15.4585 14.3975 15.3589L15.3687 14.3794C15.4627 14.2964 15.4738 14.194 15.4019 14.0723L14.2896 12.2793C14.3892 12.1022 14.486 11.9002 14.5801 11.6733C14.6797 11.4465 14.7627 11.2057 14.8291 10.9512L16.896 10.4614C17.0233 10.4393 17.0869 10.359 17.0869 10.2207V8.83447C17.0869 8.70166 17.0233 8.62142 16.896 8.59375L14.8374 8.0957C14.771 7.82454 14.6852 7.57275 14.5801 7.34033C14.4749 7.10791 14.3836 6.91423 14.3062 6.75928L15.4102 4.96631C15.4876 4.84456 15.4793 4.73665 15.3853 4.64258L14.4058 3.67969C14.3062 3.59115 14.1982 3.57731 14.082 3.63818L12.2808 4.73389C12.0981 4.63428 11.8934 4.53743 11.6665 4.44336C11.4451 4.34375 11.2044 4.26074 10.9443 4.19434L10.438 2.11914C10.4214 1.99186 10.3439 1.92822 10.2056 1.92822H8.79443C8.65609 1.92822 8.57585 1.99186 8.55371 2.11914L8.06396 4.17773C7.81494 4.24414 7.56868 4.32715 7.3252 4.42676C7.08724 4.52637 6.87972 4.62598 6.70264 4.72559L4.90967 3.63818C4.79899 3.57731 4.69385 3.59115 4.59424 3.67969L3.60645 4.64258C3.5179 4.73665 3.5096 4.84456 3.58154 4.96631L4.68555 6.75928C4.61361 6.91423 4.5223 7.10791 4.41162 7.34033C4.30648 7.57275 4.2207 7.82454 4.1543 8.0957L2.104 8.59375C1.97673 8.62142 1.91309 8.70166 1.91309 8.83447V10.2207C1.91309 10.359 1.97673 10.4393 2.104 10.4614L4.1626 10.9512C4.229 11.2057 4.31201 11.4465 4.41162 11.6733C4.51123 11.9002 4.60807 12.1022 4.70215 12.2793L3.58984 14.0723C3.52344 14.194 3.53451 14.2964 3.62305 14.3794L4.60254 15.3589C4.70768 15.4585 4.81006 15.4723 4.90967 15.4004L6.71924 14.2881C6.89632 14.3988 7.09831 14.5039 7.3252 14.6035C7.55762 14.6976 7.80111 14.7751 8.05566 14.8359L8.55371 16.8945C8.57585 17.0218 8.65609 17.0854 8.79443 17.0854ZM9.5 12.6777C8.91895 12.6777 8.3877 12.5339 7.90625 12.2461C7.43034 11.9583 7.0485 11.5765 6.76074 11.1006C6.47298 10.6191 6.3291 10.0879 6.3291 9.50684C6.3291 8.93132 6.47298 8.4056 6.76074 7.92969C7.0485 7.44824 7.43034 7.06641 7.90625 6.78418C8.3877 6.49642 8.91895 6.35254 9.5 6.35254C10.0811 6.35254 10.6095 6.49642 11.0854 6.78418C11.5669 7.06641 11.9487 7.44824 12.231 7.92969C12.5187 8.4056 12.6626 8.93132 12.6626 9.50684C12.6626 10.0879 12.5187 10.6191 12.231 11.1006C11.9487 11.582 11.5669 11.9666 11.0854 12.2544C10.6095 12.5366 10.0811 12.6777 9.5 12.6777ZM9.5 11.3911C9.83757 11.3911 10.1475 11.3053 10.4297 11.1338C10.7119 10.9622 10.936 10.7354 11.1021 10.4531C11.2736 10.1654 11.3594 9.84993 11.3594 9.50684C11.3594 9.16374 11.2736 8.85107 11.1021 8.56885C10.936 8.28662 10.7119 8.0625 10.4297 7.89648C10.1475 7.72493 9.83757 7.63916 9.5 7.63916C9.1569 7.63916 8.84147 7.72493 8.55371 7.89648C8.27148 8.0625 8.0446 8.28662 7.87305 8.56885C7.70703 8.85107 7.62402 9.16374 7.62402 9.50684C7.62402 9.85547 7.70703 10.1737 7.87305 10.4614C8.0446 10.7437 8.27148 10.9705 8.55371 11.1421C8.84147 11.3081 9.1569 11.3911 9.5 11.3911Z" fill="black" fill-opacity="0.4"/>
</svg>
