<svg width="80" height="32" viewBox="0 0 80 32" fill="none" xmlns="http://www.w3.org/2000/svg">
<rect width="80" height="32" rx="8" fill="url(#paint0_linear_8227_13611)"/>
<g clip-path="url(#clip0_8227_13611)">
<path d="M14.9028 20.647H29.0972L28.8481 21.6431C28.6877 22.2961 28.422 22.7858 28.0513 23.1123C27.6805 23.4388 27.152 23.6021 26.4658 23.6021H17.5259C16.8397 23.6021 16.3112 23.436 15.9404 23.104C15.5752 22.7775 15.3123 22.2905 15.1519 21.6431L14.9028 20.647ZM14.6289 19.5098L13.0269 12.9937L13.8237 12.7861L17.5757 15.5254C17.714 15.625 17.8275 15.6637 17.916 15.6416C18.0101 15.6139 18.0931 15.5475 18.165 15.4424L21.8008 9.95557L22.1992 9.97217L25.8018 15.4175C25.8792 15.5337 25.9678 15.6056 26.0674 15.6333C26.1725 15.6554 26.2943 15.6167 26.4326 15.5171L30.2593 12.728L30.9399 13.1182L29.3794 19.5098H14.6289ZM13.334 14.7783C12.9743 14.7783 12.6423 14.6898 12.3379 14.5127C12.0391 14.3301 11.7983 14.0894 11.6157 13.7905C11.4386 13.4917 11.3501 13.1569 11.3501 12.7861C11.3501 12.4264 11.4386 12.0972 11.6157 11.7983C11.7928 11.4995 12.0308 11.2616 12.3296 11.0845C12.634 10.9019 12.9688 10.8105 13.334 10.8105C13.6992 10.8105 14.0312 10.9019 14.3301 11.0845C14.6289 11.2616 14.8669 11.4995 15.0439 11.7983C15.221 12.0972 15.3096 12.4264 15.3096 12.7861C15.3096 13.1569 15.221 13.4917 15.0439 13.7905C14.8669 14.0894 14.6289 14.3301 14.3301 14.5127C14.0312 14.6898 13.6992 14.7783 13.334 14.7783ZM22 11.3252C21.6348 11.3252 21.3 11.2367 20.9956 11.0596C20.6968 10.8825 20.4588 10.6445 20.2817 10.3457C20.1047 10.0413 20.0161 9.70654 20.0161 9.34131C20.0161 8.97607 20.1047 8.64404 20.2817 8.34521C20.4588 8.04639 20.6968 7.80843 20.9956 7.63135C21.3 7.45426 21.6348 7.36572 22 7.36572C22.3597 7.36572 22.689 7.45703 22.9878 7.63965C23.2922 7.81673 23.5329 8.05469 23.71 8.35352C23.887 8.65234 23.9756 8.98161 23.9756 9.34131C23.9756 9.70654 23.887 10.0413 23.71 10.3457C23.5329 10.6445 23.2922 10.8825 22.9878 11.0596C22.689 11.2367 22.3597 11.3252 22 11.3252ZM30.6577 14.7783C30.2925 14.7783 29.9604 14.6898 29.6616 14.5127C29.3628 14.3301 29.1248 14.0894 28.9478 13.7905C28.7707 13.4917 28.6821 13.1569 28.6821 12.7861C28.6821 12.4264 28.7707 12.0972 28.9478 11.7983C29.1248 11.4995 29.3628 11.2616 29.6616 11.0845C29.9604 10.9019 30.2925 10.8105 30.6577 10.8105C31.0229 10.8105 31.355 10.9019 31.6538 11.0845C31.9582 11.2616 32.1989 11.4995 32.376 11.7983C32.5531 12.0972 32.6416 12.4264 32.6416 12.7861C32.6416 13.1569 32.5503 13.4917 32.3677 13.7905C32.1906 14.0894 31.9499 14.3301 31.6455 14.5127C31.3467 14.6898 31.0174 14.7783 30.6577 14.7783Z" fill="white"/>
</g>
<path d="M40.5703 17.5063V15.9829H43.3828C44.0615 15.9829 44.5889 15.8096 44.9649 15.4629C45.3408 15.1113 45.5288 14.6182 45.5288 13.9834V13.9688C45.5288 13.3291 45.3408 12.8359 44.9649 12.4893C44.5889 12.1426 44.0615 11.9692 43.3828 11.9692H40.5703V10.4312H43.8443C44.562 10.4312 45.1895 10.5776 45.7266 10.8706C46.2637 11.1636 46.6836 11.5762 46.9863 12.1084C47.2891 12.6357 47.4404 13.2534 47.4404 13.9614V13.9761C47.4404 14.6792 47.2891 15.2969 46.9863 15.8291C46.6836 16.3564 46.2637 16.769 45.7266 17.0669C45.1895 17.3599 44.562 17.5063 43.8443 17.5063H40.5703ZM39.6255 21V10.4312H41.5152V21H39.6255ZM49.2979 21V10.4312H53.5679C54.3247 10.4312 54.9741 10.5654 55.5161 10.834C56.0581 11.1025 56.4731 11.481 56.7612 11.9692C57.0493 12.4575 57.1934 13.0386 57.1934 13.7124V13.7271C57.1934 14.4253 57.0176 15.0454 56.666 15.5874C56.3193 16.1245 55.8335 16.5054 55.2085 16.73L57.5156 21H55.3623L53.2822 17.0229C53.2725 17.0229 53.2578 17.0229 53.2383 17.0229C53.2188 17.0229 53.2017 17.0229 53.187 17.0229H51.1875V21H49.2979ZM51.1875 15.5728H53.3701C53.9707 15.5728 54.437 15.4141 54.769 15.0967C55.1011 14.7793 55.2671 14.3374 55.2671 13.771V13.7563C55.2671 13.2046 55.0938 12.7676 54.7471 12.4453C54.4053 12.1182 53.9341 11.9546 53.3335 11.9546H51.1875V15.5728ZM63.8188 21.2637C62.7837 21.2637 61.8926 21.0391 61.1455 20.5898C60.4033 20.1357 59.8296 19.4937 59.4243 18.6636C59.019 17.8335 58.8164 16.8521 58.8164 15.7192V15.7046C58.8164 14.5669 59.019 13.5854 59.4243 12.7603C59.8345 11.9302 60.4131 11.2905 61.1601 10.8413C61.9121 10.3921 62.7983 10.1675 63.8188 10.1675C64.8442 10.1675 65.7304 10.3921 66.4775 10.8413C67.2246 11.2905 67.8008 11.9302 68.206 12.7603C68.6113 13.5903 68.8139 14.5718 68.8139 15.7046V15.7192C68.8139 16.8521 68.6113 17.8335 68.206 18.6636C67.8056 19.4937 67.2319 20.1357 66.4848 20.5898C65.7378 21.0391 64.8491 21.2637 63.8188 21.2637ZM63.8188 19.6304C64.4487 19.6304 64.9931 19.4692 65.4521 19.147C65.9111 18.8247 66.2651 18.3706 66.5141 17.7847C66.768 17.1987 66.895 16.5103 66.895 15.7192V15.7046C66.895 14.9087 66.768 14.2202 66.5141 13.6392C66.2651 13.0532 65.9111 12.6016 65.4521 12.2842C64.9931 11.9619 64.4487 11.8008 63.8188 11.8008C63.1938 11.8008 62.6494 11.9619 62.1855 12.2842C61.7265 12.6016 61.3701 13.0532 61.1162 13.6392C60.8672 14.2202 60.7427 14.9087 60.7427 15.7046V15.7192C60.7427 16.5103 60.8647 17.1987 61.1089 17.7847C61.3579 18.3706 61.7119 18.8247 62.1709 19.147C62.6347 19.4692 63.1841 19.6304 63.8188 19.6304Z" fill="white"/>
<defs>
<linearGradient id="paint0_linear_8227_13611" x1="80" y1="16" x2="0" y2="16" gradientUnits="userSpaceOnUse">
<stop stop-color="#1877F2"/>
<stop offset="1" stop-color="#00BBFF"/>
</linearGradient>
<clipPath id="clip0_8227_13611">
<rect width="32" height="32" fill="white" transform="translate(6)"/>
</clipPath>
</defs>
</svg>
