<svg width="36" height="36" viewBox="0 0 36 36" fill="none" xmlns="http://www.w3.org/2000/svg">
<rect width="36" height="36" rx="18" fill="#1877F2"/>
<path d="M12.4785 26V23.7979L17.7314 18.7705C18.4261 18.1045 18.9561 17.5566 19.3213 17.127C19.6937 16.6901 19.9515 16.307 20.0947 15.9775C20.238 15.641 20.3096 15.2936 20.3096 14.9355V14.9033C20.3096 14.4665 20.2093 14.0833 20.0088 13.7539C19.8154 13.4245 19.5397 13.1667 19.1816 12.9805C18.8307 12.7943 18.4154 12.7012 17.9355 12.7012C17.4199 12.7012 16.9652 12.8086 16.5713 13.0234C16.1774 13.2311 15.8695 13.5212 15.6475 13.8936C15.4255 14.2588 15.3109 14.6777 15.3037 15.1504V15.2363L12.2959 15.2256V15.1611C12.2959 14.18 12.5394 13.3135 13.0264 12.5615C13.5133 11.8096 14.1865 11.2223 15.0459 10.7998C15.9053 10.3773 16.89 10.166 18 10.166C19.0814 10.166 20.0339 10.3594 20.8574 10.7461C21.681 11.1257 22.3219 11.6556 22.7803 12.3359C23.2458 13.0091 23.4785 13.7897 23.4785 14.6777V14.71C23.4785 15.3115 23.3639 15.888 23.1348 16.4395C22.9128 16.9837 22.5368 17.5674 22.0068 18.1904C21.4769 18.8135 20.7536 19.5475 19.8369 20.3926L15.7012 24.2061L16.7646 22.3799V24.2061L15.7012 23.4111H23.7041V26H12.4785Z" fill="white"/>
</svg>
