<svg width="23" height="22" viewBox="0 0 23 22" fill="none" xmlns="http://www.w3.org/2000/svg">
<path d="M3.70068 4.00928C3.60107 3.90967 3.5319 3.79069 3.49316 3.65234C3.45996 3.514 3.45996 3.37565 3.49316 3.2373C3.5319 3.09342 3.60107 2.96891 3.70068 2.86377C3.80583 2.75863 3.92757 2.68945 4.06592 2.65625C4.2098 2.61751 4.35091 2.61751 4.48926 2.65625C4.6276 2.68945 4.74935 2.75863 4.85449 2.86377L20.02 18.0376C20.1252 18.1372 20.1943 18.2562 20.2275 18.3945C20.2607 18.5329 20.2607 18.6712 20.2275 18.8096C20.1943 18.9535 20.1252 19.078 20.02 19.1831C19.9149 19.2882 19.7931 19.3574 19.6548 19.3906C19.5164 19.4238 19.3781 19.4238 19.2397 19.3906C19.1014 19.3574 18.9797 19.2882 18.8745 19.1831L3.70068 4.00928ZM3.70068 18.0376L18.8745 2.86377C18.9797 2.75863 19.1014 2.68945 19.2397 2.65625C19.3781 2.62305 19.5164 2.62305 19.6548 2.65625C19.7931 2.68945 19.9149 2.75863 20.02 2.86377C20.1252 2.96891 20.1943 3.09066 20.2275 3.229C20.2663 3.36735 20.2663 3.50846 20.2275 3.65234C20.1943 3.79069 20.1252 3.90967 20.02 4.00928L4.85449 19.1831C4.74935 19.2882 4.6276 19.3574 4.48926 19.3906C4.35091 19.4238 4.21257 19.4238 4.07422 19.3906C3.93587 19.3574 3.81136 19.2882 3.70068 19.1831C3.59554 19.078 3.52637 18.9562 3.49316 18.8179C3.45996 18.6795 3.45996 18.5384 3.49316 18.3945C3.5319 18.2562 3.60107 18.1372 3.70068 18.0376Z" fill="#041019" fill-opacity="0.28"/>
</svg>
