<svg width="32" height="32" viewBox="0 0 32 32" fill="none" xmlns="http://www.w3.org/2000/svg">
<path d="M5.38428 25.644C4.31071 25.644 3.50277 25.3757 2.96045 24.8389C2.41813 24.3021 2.14697 23.5052 2.14697 22.4482V9.2998C2.14697 8.28711 2.39046 7.52897 2.87744 7.02539C3.36995 6.51628 4.06999 6.26172 4.97754 6.26172H8.03223C8.38639 6.26172 8.68799 6.28662 8.93701 6.33643C9.19157 6.3807 9.42399 6.46094 9.63428 6.57715C9.8501 6.69336 10.077 6.85384 10.3149 7.05859L10.9458 7.58984C11.1284 7.75033 11.3027 7.8776 11.4688 7.97168C11.6403 8.06576 11.8229 8.13493 12.0166 8.1792C12.2158 8.21794 12.4455 8.2373 12.7056 8.2373H15.9844V9.70654H12.3403C11.8035 9.70654 11.3691 9.64844 11.0371 9.53223C10.7106 9.41602 10.3786 9.21126 10.041 8.91797L9.41016 8.38672C9.21647 8.2207 9.03385 8.09066 8.8623 7.99658C8.69629 7.89697 8.51644 7.8278 8.32275 7.78906C8.1346 7.74479 7.91325 7.72266 7.65869 7.72266H5.27637C4.73405 7.72266 4.32178 7.861 4.03955 8.1377C3.76286 8.41439 3.62451 8.83219 3.62451 9.39111V22.3652C3.62451 22.9629 3.77669 23.4139 4.08105 23.7183C4.38542 24.0226 4.82812 24.1748 5.40918 24.1748H23.0068C23.5768 24.1748 24.0168 24.0226 24.3267 23.7183C24.6421 23.4139 24.7998 22.9657 24.7998 22.3735V17.1938H26.269V22.4482C26.269 23.4997 26.009 24.2938 25.4888 24.8306C24.9686 25.3729 24.2354 25.644 23.2891 25.644H5.38428ZM18.458 17.9243C17.3844 17.9243 16.5765 17.6587 16.0342 17.1274C15.4974 16.5907 15.229 15.791 15.229 14.7285V8.41162C15.229 7.34912 15.4974 6.55225 16.0342 6.021C16.5765 5.48421 17.3844 5.21582 18.458 5.21582H27.6885C28.762 5.21582 29.5672 5.48421 30.104 6.021C30.6463 6.55225 30.9175 7.34912 30.9175 8.41162V14.7285C30.9175 15.791 30.6463 16.5907 30.104 17.1274C29.5672 17.6587 28.762 17.9243 27.6885 17.9243H18.458ZM18.4248 16.5381H27.7466C28.3221 16.5381 28.762 16.3859 29.0664 16.0815C29.3763 15.7772 29.5312 15.3206 29.5312 14.7119V8.41992C29.5312 7.81673 29.3763 7.36296 29.0664 7.05859C28.7565 6.75423 28.311 6.60205 27.73 6.60205H18.4248C17.8382 6.60205 17.39 6.75423 17.0801 7.05859C16.7702 7.36296 16.6152 7.81673 16.6152 8.41992V14.7119C16.6152 15.3206 16.7702 15.7772 17.0801 16.0815C17.39 16.3859 17.8382 16.5381 18.4248 16.5381ZM3.03516 13.6411V12.2549H15.9844V13.6411H3.03516ZM20.2925 12.2964C20.0877 12.2964 19.9134 12.2272 19.7695 12.0889C19.6312 11.945 19.562 11.7707 19.562 11.5659C19.562 11.3612 19.6312 11.1896 19.7695 11.0513C19.9134 10.9074 20.0877 10.8354 20.2925 10.8354H22.3511V8.78516C22.3511 8.5804 22.4202 8.40885 22.5586 8.27051C22.7025 8.12663 22.8768 8.05469 23.0815 8.05469C23.2808 8.05469 23.4495 8.12663 23.5879 8.27051C23.7318 8.40885 23.8037 8.5804 23.8037 8.78516V10.8354H25.8623C26.0671 10.8354 26.2386 10.9046 26.377 11.043C26.5153 11.1813 26.5845 11.3556 26.5845 11.5659C26.5845 11.7707 26.5153 11.945 26.377 12.0889C26.2386 12.2272 26.0671 12.2964 25.8623 12.2964H23.8037V14.3467C23.8037 14.557 23.7345 14.7313 23.5962 14.8696C23.4578 15.008 23.2863 15.0771 23.0815 15.0771C22.8713 15.0771 22.6969 15.008 22.5586 14.8696C22.4202 14.7313 22.3511 14.557 22.3511 14.3467V12.2964H20.2925Z" fill="#041019"/>
</svg>
