<svg width="16" height="19" viewBox="0 0 16 19" fill="none" xmlns="http://www.w3.org/2000/svg">
<path d="M3.23535 18.7642C2.36654 18.7642 1.71354 18.5483 1.27637 18.1167C0.844727 17.6906 0.628906 17.0487 0.628906 16.1909V7.90674C0.628906 7.04899 0.844727 6.40706 1.27637 5.98096C1.71354 5.54932 2.36654 5.3335 3.23535 5.3335H5.55127V6.66992H3.25195C2.83691 6.66992 2.51872 6.7806 2.29736 7.00195C2.07601 7.22331 1.96533 7.5498 1.96533 7.98145V16.1162C1.96533 16.5479 2.07601 16.8743 2.29736 17.0957C2.51872 17.3171 2.83691 17.4277 3.25195 17.4277H12.7314C13.141 17.4277 13.4591 17.3171 13.686 17.0957C13.9129 16.8743 14.0264 16.5479 14.0264 16.1162V7.98145C14.0264 7.5498 13.9129 7.22331 13.686 7.00195C13.4591 6.7806 13.141 6.66992 12.7314 6.66992H10.4404V5.3335H12.7563C13.6252 5.3335 14.2754 5.54932 14.707 5.98096C15.1442 6.4126 15.3628 7.05452 15.3628 7.90674V16.1909C15.3628 17.0431 15.1442 17.6851 14.707 18.1167C14.2754 18.5483 13.6252 18.7642 12.7563 18.7642H3.23535ZM8 12.2646C7.81738 12.2646 7.65967 12.201 7.52686 12.0737C7.39958 11.9465 7.33594 11.7943 7.33594 11.6172V3.09229L7.38574 1.84717L6.82959 2.43652L5.56787 3.78125C5.45166 3.91406 5.29948 3.98047 5.11133 3.98047C4.93978 3.98047 4.7959 3.92513 4.67969 3.81445C4.56901 3.70378 4.51367 3.56266 4.51367 3.39111C4.51367 3.30257 4.53027 3.2251 4.56348 3.15869C4.59668 3.08675 4.64648 3.02035 4.71289 2.95947L7.51855 0.253418C7.60156 0.17041 7.67904 0.112305 7.75098 0.0791016C7.82845 0.0458984 7.91146 0.0292969 8 0.0292969C8.08301 0.0292969 8.16048 0.0458984 8.23242 0.0791016C8.3099 0.112305 8.39014 0.17041 8.47314 0.253418L11.2788 2.95947C11.3452 3.02035 11.395 3.08675 11.4282 3.15869C11.4614 3.2251 11.478 3.30257 11.478 3.39111C11.478 3.56266 11.4199 3.70378 11.3037 3.81445C11.1875 3.92513 11.0436 3.98047 10.8721 3.98047C10.6895 3.98047 10.54 3.91406 10.4238 3.78125L9.16211 2.43652L8.60596 1.84717L8.65576 3.09229V11.6172C8.65576 11.7943 8.58936 11.9465 8.45654 12.0737C8.32926 12.201 8.17708 12.2646 8 12.2646Z" fill="#1877F2"/>
</svg>
