<svg width="20" height="19" viewBox="0 0 20 19" fill="none" xmlns="http://www.w3.org/2000/svg">
<path d="M4.31396 18.0752C4.14242 17.9479 4.03727 17.7764 3.99854 17.5605C3.96533 17.3447 4.0013 17.0874 4.10645 16.7886L5.84131 11.6255L1.40869 8.43799C1.1486 8.25537 0.96875 8.06722 0.869141 7.87354C0.769531 7.67985 0.75293 7.48063 0.819336 7.27588C0.885742 7.07666 1.01579 6.92725 1.20947 6.82764C1.40316 6.72803 1.66048 6.68099 1.98145 6.68652L7.41846 6.71973L9.07031 1.53174C9.16992 1.22738 9.29443 0.997721 9.44385 0.842773C9.5988 0.687826 9.78141 0.610352 9.9917 0.610352C10.2075 0.610352 10.3901 0.687826 10.5396 0.842773C10.6945 0.997721 10.8218 1.22738 10.9214 1.53174L12.5732 6.71973L18.0103 6.68652C18.3312 6.68099 18.5885 6.72803 18.7822 6.82764C18.9759 6.92725 19.106 7.07666 19.1724 7.27588C19.2388 7.48063 19.2222 7.67985 19.1226 7.87354C19.0229 8.06722 18.8431 8.25537 18.583 8.43799L14.1504 11.6255L15.8853 16.7886C15.9904 17.0874 16.0236 17.3447 15.9849 17.5605C15.9517 17.7764 15.8493 17.9479 15.6777 18.0752C15.5062 18.208 15.3125 18.2523 15.0967 18.208C14.8809 18.1693 14.6457 18.0586 14.3911 17.876L9.9917 14.647L5.60059 17.876C5.34603 18.0586 5.11084 18.1693 4.89502 18.208C4.6792 18.2523 4.48551 18.208 4.31396 18.0752ZM5.50928 16.4316C5.52035 16.4482 5.54525 16.4427 5.58398 16.415L9.57666 13.3687C9.70947 13.2635 9.84782 13.2109 9.9917 13.2109C10.1411 13.2109 10.2822 13.2635 10.415 13.3687L14.4077 16.415C14.4465 16.4427 14.4714 16.4482 14.4824 16.4316C14.488 16.4206 14.488 16.3957 14.4824 16.3569L12.8306 11.6089C12.7918 11.5037 12.7725 11.4041 12.7725 11.3101C12.778 11.216 12.8057 11.1302 12.8555 11.0527C12.9053 10.9697 12.9772 10.895 13.0713 10.8286L17.2051 7.97314C17.2438 7.95101 17.2576 7.92887 17.2466 7.90674C17.241 7.89014 17.2161 7.88184 17.1719 7.88184L12.1499 7.97314C11.9784 7.97868 11.8372 7.94548 11.7266 7.87354C11.6159 7.79606 11.5356 7.67155 11.4858 7.5L10.0415 2.69385C10.0304 2.64958 10.0138 2.62744 9.9917 2.62744C9.9751 2.62744 9.96126 2.64958 9.9502 2.69385L8.50586 7.5C8.45605 7.67155 8.37581 7.79606 8.26514 7.87354C8.15446 7.94548 8.01335 7.97868 7.8418 7.97314L2.81982 7.88184C2.77555 7.88184 2.75065 7.89014 2.74512 7.90674C2.73405 7.92887 2.74788 7.95101 2.78662 7.97314L6.92041 10.8286C7.01449 10.895 7.08643 10.9697 7.13623 11.0527C7.18604 11.1302 7.21094 11.216 7.21094 11.3101C7.21647 11.4041 7.19987 11.5037 7.16113 11.6089L5.50928 16.3569C5.49821 16.3957 5.49821 16.4206 5.50928 16.4316Z" fill="#1877F2"/>
</svg>
