<svg width="13" height="19" viewBox="0 0 13 19" fill="none" xmlns="http://www.w3.org/2000/svg">
<path d="M1.78516 18.397C1.50846 18.397 1.29264 18.3084 1.1377 18.1313C0.982747 17.9543 0.905273 17.7052 0.905273 17.3843V2.97412C0.905273 2.18278 1.10173 1.58789 1.49463 1.18945C1.88753 0.791016 2.47412 0.591797 3.25439 0.591797H9.74561C10.5259 0.591797 11.1125 0.791016 11.5054 1.18945C11.8983 1.58789 12.0947 2.18278 12.0947 2.97412V17.3843C12.0947 17.7052 12.0173 17.9543 11.8623 18.1313C11.7074 18.3084 11.4915 18.397 11.2148 18.397C11.0101 18.397 10.8192 18.3278 10.6421 18.1895C10.4705 18.0511 10.1966 17.8021 9.82031 17.4424L6.57471 14.2466C6.5249 14.1912 6.4751 14.1912 6.42529 14.2466L3.17969 17.4424C2.80339 17.8076 2.52669 18.0566 2.34961 18.1895C2.17253 18.3278 1.98438 18.397 1.78516 18.397ZM2.46582 16.1558L6.06006 12.6694C6.19287 12.5422 6.33952 12.4785 6.5 12.4785C6.66048 12.4785 6.80713 12.5422 6.93994 12.6694L10.5342 16.1558C10.5951 16.2111 10.6504 16.2305 10.7002 16.2139C10.7555 16.2028 10.7832 16.1558 10.7832 16.0728V2.99072C10.7832 2.63102 10.6891 2.35986 10.501 2.17725C10.3184 1.99463 10.0472 1.90332 9.6875 1.90332H3.3208C2.95557 1.90332 2.67887 1.99463 2.49072 2.17725C2.30811 2.35986 2.2168 2.63102 2.2168 2.99072V16.0728C2.2168 16.1558 2.2417 16.2028 2.2915 16.2139C2.34684 16.2305 2.40495 16.2111 2.46582 16.1558Z" fill="black" fill-opacity="0.4"/>
</svg>
