<svg width="20" height="21" viewBox="0 0 20 21" fill="none" xmlns="http://www.w3.org/2000/svg">
<path d="M10 20.9102C8.63932 20.9102 7.35677 20.6497 6.15234 20.1289C4.95443 19.6081 3.89648 18.8887 2.97852 17.9707C2.06055 17.0527 1.34115 15.9948 0.820312 14.7969C0.299479 13.5924 0.0390625 12.3099 0.0390625 10.9492C0.0390625 9.58854 0.299479 8.30924 0.820312 7.11133C1.34115 5.9069 2.05729 4.8457 2.96875 3.92773C3.88672 3.00977 4.94466 2.29036 6.14258 1.76953C7.34701 1.2487 8.62956 0.988281 9.99023 0.988281C11.3509 0.988281 12.6335 1.2487 13.8379 1.76953C15.0423 2.29036 16.1035 3.00977 17.0215 3.92773C17.9395 4.8457 18.6589 5.9069 19.1797 7.11133C19.7005 8.30924 19.9609 9.58854 19.9609 10.9492C19.9609 12.3099 19.7005 13.5924 19.1797 14.7969C18.6589 15.9948 17.9395 17.0527 17.0215 17.9707C16.1035 18.8887 15.0423 19.6081 13.8379 20.1289C12.64 20.6497 11.3607 20.9102 10 20.9102ZM8.89648 15.7148C9.06576 15.7148 9.21875 15.6758 9.35547 15.5977C9.49219 15.5195 9.61263 15.4023 9.7168 15.2461L14.3066 8.00977C14.3652 7.91211 14.4206 7.80794 14.4727 7.69727C14.5247 7.58659 14.5508 7.47591 14.5508 7.36523C14.5508 7.13737 14.4661 6.95833 14.2969 6.82812C14.1276 6.69141 13.9388 6.62305 13.7305 6.62305C13.444 6.62305 13.2096 6.77279 13.0273 7.07227L8.85742 13.7715L6.875 11.2129C6.7513 11.0501 6.63086 10.9395 6.51367 10.8809C6.40299 10.8223 6.27604 10.793 6.13281 10.793C5.91146 10.793 5.72591 10.8743 5.57617 11.0371C5.42643 11.1934 5.35156 11.3822 5.35156 11.6035C5.35156 11.7142 5.37109 11.8249 5.41016 11.9355C5.45573 12.0397 5.51432 12.1406 5.58594 12.2383L8.03711 15.2461C8.16732 15.4154 8.30078 15.5358 8.4375 15.6074C8.57422 15.679 8.72721 15.7148 8.89648 15.7148Z" fill="white"/>
</svg>
