<svg width="20" height="19" viewBox="0 0 20 19" fill="none" xmlns="http://www.w3.org/2000/svg">
<path d="M7.60938 17.4258V11.3828C7.60938 11.1947 7.66748 11.0425 7.78369 10.9263C7.8999 10.8101 8.05485 10.752 8.24854 10.752H11.7681C11.9562 10.752 12.1084 10.8101 12.2246 10.9263C12.3408 11.0425 12.3989 11.1947 12.3989 11.3828V17.4258H7.60938ZM4.35547 18.2808C3.76335 18.2808 3.30127 18.1203 2.96924 17.7993C2.64274 17.4784 2.47949 17.0273 2.47949 16.4463V7.27393L3.81592 6.36914V16.106C3.81592 16.3771 3.88509 16.5846 4.02344 16.7285C4.16732 16.8724 4.37207 16.9443 4.6377 16.9443H15.3042C15.5698 16.9443 15.7718 16.8724 15.9102 16.7285C16.0485 16.5846 16.1177 16.3771 16.1177 16.106V6.36084L17.4541 7.27393V16.4463C17.4541 17.0273 17.2909 17.4784 16.9644 17.7993C16.6379 18.1203 16.1785 18.2808 15.5864 18.2808H4.35547ZM0.0888672 9.04199C0.0888672 8.82617 0.177409 8.64632 0.354492 8.50244L9.00391 1.23926C9.3138 0.979167 9.64583 0.849121 10 0.849121C10.3597 0.849121 10.6945 0.979167 11.0044 1.23926L19.6455 8.50244C19.8171 8.64632 19.9028 8.83447 19.9028 9.06689C19.9028 9.26611 19.8337 9.42383 19.6953 9.54004C19.557 9.65072 19.391 9.70605 19.1973 9.70605C19.0811 9.70605 18.9731 9.67839 18.8735 9.62305C18.7795 9.56771 18.6909 9.50684 18.6079 9.44043L10.2988 2.46777C10.2048 2.38477 10.1051 2.34326 10 2.34326C9.90039 2.34326 9.80355 2.38477 9.70947 2.46777L1.40039 9.44043C1.31185 9.50684 1.21777 9.56771 1.11816 9.62305C1.02409 9.67839 0.918945 9.70605 0.802734 9.70605C0.58138 9.70605 0.407064 9.63965 0.279785 9.50684C0.152507 9.36849 0.0888672 9.21354 0.0888672 9.04199ZM15.3706 5.29834V3.22314C15.3706 3.04053 15.4259 2.89665 15.5366 2.7915C15.6473 2.68083 15.7912 2.62549 15.9683 2.62549H16.8564C17.0391 2.62549 17.1829 2.68083 17.2881 2.7915C17.3988 2.89665 17.4541 3.04053 17.4541 3.22314V7.06641L15.3706 5.29834Z" fill="black" fill-opacity="0.4"/>
</svg>
